<svg version="1.1" xmlns="http://www.w3.org/2000/svg" viewBox="0 0 48.01026149739755 41.97063688999333" width="48.01026149739755" height="41.97063688999333" filter="invert(93%) hue-rotate(180deg)">
  <!-- svg-source:excalidraw -->
  
  <defs>
    <style class="style-fonts">
      
    </style>
    
  </defs>
  <g stroke-linecap="round" transform="translate(10 10.000000000001819) rotate(0 11.631513647642691 10.985318444995755)"><path d="M12.27 -0.3 C14.66 -0.34, 17.55 1.51, 19.33 3.22 C21.11 4.93, 22.6 7.69, 22.97 9.95 C23.34 12.22, 22.92 14.95, 21.55 16.8 C20.19 18.65, 17.21 20.37, 14.79 21.04 C12.37 21.7, 9.24 21.65, 7.04 20.78 C4.83 19.92, 2.66 17.9, 1.56 15.86 C0.47 13.83, 0.05 10.81, 0.47 8.57 C0.89 6.34, 2 3.8, 4.08 2.45 C6.17 1.11, 11.46 0.92, 12.99 0.52 C14.51 0.12, 13.2 -0.1, 13.21 0.03 M12.55 0.05 C14.86 0.05, 17.46 1.1, 19.35 2.75 C21.25 4.39, 23.72 7.48, 23.92 9.93 C24.11 12.39, 22.08 15.62, 20.51 17.46 C18.94 19.3, 16.81 20.29, 14.49 20.97 C12.17 21.65, 8.71 22.45, 6.59 21.54 C4.46 20.64, 2.65 17.89, 1.74 15.54 C0.83 13.2, 0.55 9.68, 1.13 7.48 C1.72 5.28, 3.19 3.51, 5.23 2.32 C7.28 1.13, 12.11 0.77, 13.41 0.33 C14.71 -0.11, 13.22 -0.53, 13.04 -0.3" stroke="#1e1e1e" stroke-width="4" fill="none"></path></g><g stroke-linecap="round"><g transform="translate(16.949823464854603 17.984674123827062) rotate(0 3.1547461009861877 3.911885165222884)"><path d="M-0.05 0.17 C0.96 1.57, 5.12 6.87, 6.18 8.17 M-0.5 -0.05 C0.44 1.28, 4.74 6.49, 5.84 7.72" stroke="#1e1e1e" stroke-width="4" fill="none"></path></g></g><mask></mask><g stroke-linecap="round"><g transform="translate(23.25931566682698 25.30368507811545) rotate(0 7.066631266209072 -6.435682046011607)"><path d="M-0.18 0.31 C2.11 -1.84, 11.42 -10.43, 13.73 -12.65 M0.73 0 C3.19 -2.34, 12.42 -11.42, 14.75 -13.5" stroke="#1e1e1e" stroke-width="4" fill="none"></path></g></g><mask></mask></svg>