<svg version="1.1" xmlns="http://www.w3.org/2000/svg" viewBox="0 0 103.5376767541145 105.05195488258869" width="103.5376767541145" height="105.05195488258869">
  <!-- svg-source:excalidraw -->
  
  <defs>
    <style class="style-fonts">
      
    </style>
    
  </defs>
  <g stroke-linecap="round" transform="translate(17.688198443721376 30.029471252932126) rotate(0 11.631513647642691 10.985318444995755)"><path d="M12.27 -0.3 C14.66 -0.34, 17.55 1.51, 19.33 3.22 C21.11 4.93, 22.6 7.69, 22.97 9.95 C23.34 12.22, 22.92 14.95, 21.55 16.8 C20.19 18.65, 17.21 20.37, 14.79 21.04 C12.37 21.7, 9.24 21.65, 7.04 20.78 C4.83 19.92, 2.66 17.9, 1.56 15.86 C0.47 13.83, 0.05 10.81, 0.47 8.57 C0.89 6.34, 2 3.8, 4.08 2.45 C6.17 1.11, 11.46 0.92, 12.99 0.52 C14.51 0.12, 13.2 -0.1, 13.21 0.03 M12.55 0.05 C14.86 0.05, 17.46 1.1, 19.35 2.75 C21.25 4.39, 23.72 7.48, 23.92 9.93 C24.11 12.39, 22.08 15.62, 20.51 17.46 C18.94 19.3, 16.81 20.29, 14.49 20.97 C12.17 21.65, 8.71 22.45, 6.59 21.54 C4.46 20.64, 2.65 17.89, 1.74 15.54 C0.83 13.2, 0.55 9.68, 1.13 7.48 C1.72 5.28, 3.19 3.51, 5.23 2.32 C7.28 1.13, 12.11 0.77, 13.41 0.33 C14.71 -0.11, 13.22 -0.53, 13.04 -0.3" stroke="#1e1e1e" stroke-width="2" fill="none"></path></g><g stroke-linecap="round" transform="translate(18.0541020225113 58.828667629706615) rotate(0 11.631513647642691 10.985318444995755)"><path d="M9.45 0.5 C11.62 -0.03, 14.89 0.73, 17.14 1.79 C19.38 2.85, 22.02 4.69, 22.91 6.85 C23.8 9.01, 23.37 12.42, 22.47 14.75 C21.57 17.07, 19.66 19.61, 17.52 20.8 C15.39 21.99, 12.07 22.29, 9.66 21.88 C7.25 21.46, 4.73 20.15, 3.06 18.31 C1.38 16.47, -0.26 13.32, -0.38 10.85 C-0.51 8.38, 0.58 5.21, 2.29 3.49 C4 1.76, 8.43 0.96, 9.88 0.49 C11.34 0.03, 10.95 0.52, 11.03 0.71 M13.1 -0.32 C15.36 -0.25, 18 1.57, 19.73 3.25 C21.45 4.93, 23.23 7.46, 23.44 9.76 C23.65 12.06, 22.55 15.03, 21 17.07 C19.44 19.11, 16.45 21.23, 14.11 21.98 C11.77 22.73, 9.1 22.66, 6.97 21.59 C4.83 20.51, 2.44 17.69, 1.31 15.51 C0.17 13.33, -0.39 10.83, 0.15 8.52 C0.7 6.2, 2.43 2.92, 4.58 1.62 C6.72 0.31, 11.61 0.96, 13.01 0.69 C14.41 0.43, 13.1 -0.01, 12.99 0.01" stroke="#1e1e1e" stroke-width="2" fill="none"></path></g><g stroke-linecap="round"><g transform="translate(24.63802190857598 38.01414537675737) rotate(0 3.1547461009861877 3.911885165222884)"><path d="M-0.05 0.17 C0.96 1.57, 5.12 6.87, 6.18 8.17 M-0.5 -0.05 C0.44 1.28, 4.74 6.49, 5.84 7.72" stroke="#1e1e1e" stroke-width="2" fill="none"></path></g></g><mask></mask><g stroke-linecap="round"><g transform="translate(30.947514110548354 45.33315633104576) rotate(0 10.599946899313636 -9.33804845891882)"><path d="M-0.39 0.68 C2.99 -2.44, 16.89 -14.91, 20.31 -18.19 M1.61 -0.01 C5.36 -3.54, 19.07 -17.09, 22.56 -20.06" stroke="#1e1e1e" stroke-width="2" fill="none"></path></g></g><mask></mask><g stroke-linecap="round" transform="translate(10 10) rotate(0 41.76883837705725 42.525977441294344)"><path d="M20.88 0 C32.21 -1.45, 40.69 -1.57, 62.65 0 M20.88 0 C34.34 0.92, 49.7 -0.21, 62.65 0 M62.65 0 C78.03 -1.62, 83.34 7.61, 83.54 20.88 M62.65 0 C76.11 0.22, 84.58 4.92, 83.54 20.88 M83.54 20.88 C82.6 32, 82.89 45.89, 83.54 64.17 M83.54 20.88 C84.31 32.34, 83.43 45.21, 83.54 64.17 M83.54 64.17 C83.81 79.14, 77.77 84.45, 62.65 85.05 M83.54 64.17 C83.89 76.87, 77.77 84.64, 62.65 85.05 M62.65 85.05 C50.3 86.5, 41.86 83.58, 20.88 85.05 M62.65 85.05 C49.44 85.81, 37.97 84.49, 20.88 85.05 M20.88 85.05 C8.57 85.38, 1.82 79.1, 0 64.17 M20.88 85.05 C9.17 83.41, -1.95 78.16, 0 64.17 M0 64.17 C-1.5 49.96, -0.18 34.2, 0 20.88 M0 64.17 C1.08 50.5, -0.61 36.26, 0 20.88 M0 20.88 C1.64 7.59, 8.63 -0.34, 20.88 0 M0 20.88 C-2.18 5.94, 9.19 1.71, 20.88 0" stroke="#1e1e1e" stroke-width="2" fill="none"></path></g></svg>